/* XPM */
static char *south[] = {
"64 64 2 1",
"# c #0000FF",
". c #000099",
"####....####....####....####....####....####....####....####....",
"####....####....####....####....####....####....####....####....",
"####....####....####....####....####....####....####....####....",
"####....####....####....####....####....####....####....####....",
"....####....####....####....####....####....####....####....####",
"....####....####....####....####....####....####....####....####",
"....####....####....####....####....####....####....####....####",
"....####....####....####....####....####....####....####....####",
"####....####....####....####....####....####....####....####....",
"####....####....####....####....####....####....####....####....",
"####....####....####....####....####....####....####....####....",
"####....####....####....####....####....####....####....####....",
"....####....####....####....####....####....####....####....####",
"....####....####....####....####....####....####....####....####",
"....####....####....####....####....####....####....####....####",
"....####....####....####....####....####....####....####....####",
"####....####....####....####....####....####....####....####....",
"####....####....####....####....####....####....####....####....",
"####....####....####....####....####....####....####....####....",
"####....####....####....####....####....####....####....####....",
"....####....####....####....####....####....####....####....####",
"....####....####....####....####....####....####....####....####",
"....####....####....####....####....####....####....####....####",
"....####....####....####....####....####....####....####....####",
"####....####....####....####....####....####....####....####....",
"####....####....####....####....####....####....####....####....",
"####....####....####....####....####....####....####....####....",
"####....####....####....####....####....####....####....####....",
"....####....####....####....####....####....####....####....####",
"....####....####....####....####....####....####....####....####",
"....####....####....####....####....####....####....####....####",
"....####....####....####....####....####....####....####....####",
"####....####....####....####....####....####....####....####....",
"####....####....####....####....####....####....####....####....",
"####....####....####....####....####....####....####....####....",
"####....####....####....####....####....####....####....####....",
"....####....####....####....####....####....####....####....####",
"....####....####....####....####....####....####....####....####",
"....####....####....####....####....####....####....####....####",
"....####....####....####....####....####....####....####....####",
"####....####....####....####....####....####....####....####....",
"####....####....####....####....####....####....####....####....",
"####....####....####....####....####....####....####....####....",
"####....####....####....####....####....####....####....####....",
"....####....####....####....####....####....####....####....####",
"....####....####....####....####....####....####....####....####",
"....####....####....####....####....####....####....####....####",
"....####....####....####....####....####....####....####....####",
"####....####....####....####....####....####....####....####....",
"####....####....####....####....####....####....####....####....",
"####....####....####....####....####....####....####....####....",
"####....####....####....####....####....####....####....####....",
"....####....####....####....####....####....####....####....####",
"....####....####....####....####....####....####....####....####",
"....####....####....####....####....####....####....####....####",
"....####....####....####....####....####....####....####....####",
"####....####....####....####....####....####....####....####....",
"####....####....####....####....####....####....####....####....",
"####....####....####....####....####....####....####....####....",
"####....####....####....####....####....####....####....####....",
"....####....####....####....####....####....####....####....####",
"....####....####....####....####....####....####....####....####",
"....####....####....####....####....####....####....####....####",
"....####....####....####....####....####....####....####....####"
};