/* XPM */
static char *west[] = {
"64 64 2 1",
"# c #00FF00",
". c #009900",
"#......##......##......##......##......##......##......##......#",
"#......##......##......##......##......##......##......##......#",
"#......##......##......##......##......##......##......##......#",
"#......##......##......##......##......##......##......##......#",
"#......##......##......##......##......##......##......##......#",
"#......##......##......##......##......##......##......##......#",
"########################################################........",
"........########################################################",
"#......##......##......##......##......##......##......##......#",
"#......##......##......##......##......##......##......##......#",
"#......##......##......##......##......##......##......##......#",
"#......##......##......##......##......##......##......##......#",
"#......##......##......##......##......##......##......##......#",
"#......##......##......##......##......##......##......##......#",
"########################################################........",
"........########################################################",
"#......##......##......##......##......##......##......##......#",
"#......##......##......##......##......##......##......##......#",
"#......##......##......##......##......##......##......##......#",
"#......##......##......##......##......##......##......##......#",
"#......##......##......##......##......##......##......##......#",
"#......##......##......##......##......##......##......##......#",
"########################################################........",
"........########################################################",
"#......##......##......##......##......##......##......##......#",
"#......##......##......##......##......##......##......##......#",
"#......##......##......##......##......##......##......##......#",
"#......##......##......##......##......##......##......##......#",
"#......##......##......##......##......##......##......##......#",
"#......##......##......##......##......##......##......##......#",
"########################################################........",
"........########################################################",
"#......##......##......##......##......##......##......##......#",
"#......##......##......##......##......##......##......##......#",
"#......##......##......##......##......##......##......##......#",
"#......##......##......##......##......##......##......##......#",
"#......##......##......##......##......##......##......##......#",
"#......##......##......##......##......##......##......##......#",
"########################################################........",
"........########################################################",
"#......##......##......##......##......##......##......##......#",
"#......##......##......##......##......##......##......##......#",
"#......##......##......##......##......##......##......##......#",
"#......##......##......##......##......##......##......##......#",
"#......##......##......##......##......##......##......##......#",
"#......##......##......##......##......##......##......##......#",
"########################################################........",
"........########################################################",
"#......##......##......##......##......##......##......##......#",
"#......##......##......##......##......##......##......##......#",
"#......##......##......##......##......##......##......##......#",
"#......##......##......##......##......##......##......##......#",
"#......##......##......##......##......##......##......##......#",
"#......##......##......##......##......##......##......##......#",
"########################################################........",
"........########################################################",
"#......##......##......##......##......##......##......##......#",
"#......##......##......##......##......##......##......##......#",
"#......##......##......##......##......##......##......##......#",
"#......##......##......##......##......##......##......##......#",
"#......##......##......##......##......##......##......##......#",
"#......##......##......##......##......##......##......##......#",
"########################################################........",
"........########################################################"
};